<svg width="912" height="757" viewBox="0 0 912 757" fill="none" xmlns="http://www.w3.org/2000/svg">
<g clip-path="url(#clip0)" filter="url(#filter0_di)">
<path d="M141.273 601.895C141.273 647.134 114.378 662.931 81.205 662.931C80.4326 662.931 79.6644 662.923 78.9005 662.902C77.3641 662.869 75.8403 662.802 74.3373 662.693C44.3952 660.577 21.1329 643.965 21.1329 601.895C21.1329 558.359 76.7587 503.422 80.9545 499.343L80.9628 499.339C81.1215 499.181 81.205 499.101 81.205 499.101C81.205 499.101 141.273 556.652 141.273 601.895Z" fill="#5D9A4E"/>
<path d="M79.0132 656.009L100.985 625.312L78.9589 659.378L78.9005 662.902C77.3641 662.869 75.8403 662.802 74.3373 662.693L76.7045 617.434L76.6877 617.083L76.7295 617.016L76.9508 612.741L54.8699 578.586L77.0176 609.535L77.0719 610.441L78.8629 576.244L59.9591 540.954L79.0925 570.237L80.9545 499.343L80.9628 499.101V499.339L80.6538 555.245L99.4699 533.081L80.5745 560.059L80.0777 590.677L97.6497 561.294L80.0026 595.186L79.7271 612.207L105.236 571.306L79.6311 618.148L79.0132 656.009Z" fill="#F2F2F2"/>
<g opacity="0.7">
<path opacity="0.7" d="M837.984 284.805V273.91H783.509V324.3C783.509 327.117 784.628 329.819 786.62 331.811C788.612 333.803 791.314 334.922 794.132 334.922H827.362C830.179 334.922 832.881 333.803 834.873 331.811C836.865 329.819 837.984 327.117 837.984 324.3V313.132C841.741 313.132 845.343 311.64 848 308.984C850.656 306.328 852.148 302.725 852.148 298.969C852.148 295.212 850.656 291.61 848 288.953C845.343 286.297 841.741 284.805 837.984 284.805ZM837.984 307.685V290.253C840.296 290.253 842.513 291.171 844.148 292.805C845.782 294.44 846.7 296.657 846.7 298.969C846.7 301.28 845.782 303.497 844.148 305.132C842.513 306.766 840.296 307.685 837.984 307.685Z" fill="url(#paint0_linear)"/>
</g>
<path d="M836.232 286.51C833.674 286.51 831.174 287.269 829.047 288.69C826.92 290.111 825.263 292.13 824.284 294.493C823.305 296.856 823.049 299.457 823.548 301.965C824.047 304.474 825.279 306.778 827.087 308.587C828.896 310.395 831.2 311.627 833.709 312.126C836.217 312.625 838.818 312.369 841.181 311.39C843.544 310.411 845.563 308.754 846.984 306.627C848.405 304.5 849.164 302 849.164 299.442C849.164 296.012 847.801 292.723 845.376 290.298C842.951 287.873 839.661 286.51 836.232 286.51ZM836.232 307.4C834.658 307.4 833.119 306.934 831.81 306.059C830.502 305.185 829.482 303.942 828.879 302.488C828.277 301.034 828.119 299.433 828.426 297.89C828.733 296.346 829.491 294.928 830.604 293.815C831.717 292.702 833.135 291.944 834.679 291.637C836.223 291.33 837.823 291.488 839.277 292.09C840.731 292.692 841.974 293.712 842.849 295.021C843.723 296.33 844.19 297.868 844.19 299.442C844.19 301.553 843.351 303.577 841.859 305.07C840.367 306.562 838.342 307.4 836.232 307.4Z" fill="#949393"/>
<path opacity="0.1" d="M836.232 286.51C833.674 286.51 831.174 287.269 829.047 288.69C826.92 290.111 825.263 292.13 824.284 294.493C823.305 296.856 823.049 299.457 823.548 301.965C824.047 304.474 825.279 306.778 827.087 308.587C828.896 310.395 831.2 311.627 833.709 312.126C836.217 312.625 838.818 312.369 841.181 311.39C843.544 310.411 845.563 308.754 846.984 306.627C848.405 304.5 849.164 302 849.164 299.442C849.164 296.012 847.801 292.723 845.376 290.298C842.951 287.873 839.661 286.51 836.232 286.51ZM836.232 307.4C834.658 307.4 833.119 306.934 831.81 306.059C830.502 305.185 829.482 303.942 828.879 302.488C828.277 301.034 828.119 299.433 828.426 297.89C828.733 296.346 829.491 294.928 830.604 293.815C831.717 292.702 833.135 291.944 834.679 291.637C836.223 291.33 837.823 291.488 839.277 292.09C840.731 292.692 841.974 293.712 842.849 295.021C843.723 296.33 844.19 297.868 844.19 299.442C844.19 301.553 843.351 303.577 841.859 305.07C840.367 306.562 838.342 307.4 836.232 307.4Z" fill="black"/>
<path d="M786.493 276.563H836.232V322.52C836.232 325.106 835.204 327.586 833.376 329.414C831.547 331.242 829.068 332.27 826.482 332.27H796.243C793.657 332.27 791.177 331.242 789.349 329.414C787.52 327.586 786.493 325.106 786.493 322.52V276.563Z" fill="#949393"/>
<path opacity="0.1" d="M827.279 276.563V322.571C827.279 325.143 826.257 327.61 824.438 329.429C822.619 331.248 820.152 332.27 817.58 332.27H822.554C825.126 332.27 827.593 331.248 829.412 329.429C831.231 327.61 832.253 325.143 832.253 322.571V276.563H827.279Z" fill="black"/>
<path d="M796.308 239.481C795.883 239.494 795.466 239.601 795.086 239.794C794.706 239.987 794.374 240.261 794.112 240.596C793.459 241.779 794.642 243.112 795.721 243.925C797.714 245.427 799.815 246.901 801.17 248.997C802.524 251.093 802.95 254.017 801.469 256.026C799.535 258.648 794.921 259.212 794.475 262.44C794.188 264.512 795.98 266.28 797.795 267.32C802.275 269.886 808.051 270.571 811.296 274.587C812.638 271.827 815.641 270.231 818.634 269.549C821.627 268.868 824.737 268.919 827.772 268.457C828.267 268.447 828.754 268.321 829.192 268.089C829.63 267.856 830.007 267.524 830.293 267.119C831.141 265.398 828.723 263.333 829.558 261.604C830.193 260.289 832.059 260.391 833.421 259.864C835.64 259.007 836.554 256.152 835.925 253.858C835.295 251.564 833.517 249.772 831.646 248.302C826.606 244.342 820.545 242.012 814.416 240.337C811.565 239.558 808.218 238.336 805.257 238.218C802.398 238.104 799.138 238.997 796.308 239.481Z" fill="#E4E4E4"/>
<path d="M447.209 344.016L343.209 668.016" stroke="#E0E0E0" stroke-width="8" stroke-miterlimit="10"/>
<g opacity="0.7">
<path opacity="0.7" d="M527.788 704.506C514.995 705.248 503.599 715.965 503.599 715.965L498.088 702.295L497.638 702.441C500.33 690.657 555.104 447.722 500.272 426.779C458.139 410.686 413.448 390.771 378.434 391.519V334.129H427.523V332.084H466.385C473.834 326.763 463.01 323.104 450.911 320.817C451.405 320.253 451.839 319.64 452.208 318.988L514.451 207.317C514.451 207.317 528.768 183.795 519.564 172.546C510.36 161.296 497.065 201.181 497.065 201.181L445.931 274.814C445.931 274.814 394.322 221.023 361.492 194.273C357.849 190.662 353.738 187.556 349.27 185.036C343.277 180.981 338.741 178.881 336.504 179.704C336.481 179.713 336.463 179.727 336.44 179.736C331.465 178.358 326.326 177.66 321.164 177.659H317.073V169.268C326.237 166.242 334.62 161.231 341.625 154.593C348.63 147.956 354.084 139.854 357.6 130.867C363.369 121.312 366.892 110.571 367.904 99.4548C368.916 88.3389 367.389 77.1384 363.439 66.6987C364.05 66.6266 364.637 66.4232 365.162 66.1025C367.014 64.9102 367.197 62.302 367.018 60.1066C366.347 52.7381 363.89 45.6441 359.861 39.438C355.832 33.232 350.353 28.1007 343.896 24.4877C338.714 21.6544 332.78 19.7022 328.959 15.1992C325.676 11.3299 324.296 5.91822 320.323 2.76113C315.604 -0.989543 308.785 -0.344755 302.994 1.32885C296.549 3.19365 290.443 6.07507 284.906 9.86441C278.641 14.1551 272.987 19.6675 265.775 22.0425C260.65 23.73 255.093 23.6963 249.935 25.2817C245.978 26.5358 242.368 28.6987 239.396 31.5975C236.424 34.4963 234.171 38.0505 232.819 41.9757C231.506 46.1926 231.009 50.6211 231.354 55.024C228.218 60.2664 225.75 65.8806 224.008 71.7358C223.623 71.9443 223.235 72.1482 222.852 72.3631L223.974 71.8589C220.062 85.0623 219.932 99.0982 223.599 112.372C227.265 125.645 234.581 137.624 244.716 146.948C252.724 157.373 263.682 165.15 276.166 169.268V179.419C267.259 181.34 258.762 184.82 251.066 189.699L251.055 189.686C251.055 189.686 250.402 190.089 249.285 190.841C249.173 190.916 249.061 190.992 248.95 191.067C241.382 196.203 216.024 214.971 216.88 235.25C216.847 236.03 216.852 236.812 216.894 237.596C215.509 243.457 214.808 249.458 214.805 255.48V402.649C214.785 418.911 220.25 434.704 230.316 447.475C208.975 452.259 195.374 459.493 195.374 467.589C195.481 468.267 195.481 468.957 195.374 469.635C195.374 484.037 238.414 495.713 291.506 495.713C297.925 495.713 304.196 495.541 310.263 495.215L370.253 543.779L274.121 698.204C274.121 698.204 242.417 722.749 266.962 730.93C291.506 739.112 341.617 745.248 341.617 745.248C341.617 745.248 349.799 730.93 338.549 724.794C327.3 718.658 311.96 721.726 311.96 721.726L314.005 709.454C314.005 709.454 480.702 566.278 445.931 517.19C439.279 507.798 432.627 498.108 425.917 488.569L452.159 490.961L458.13 715.718L458.877 715.474C457.378 719.89 446.776 753.214 470.276 747.575C495.434 741.538 541.209 720.243 541.209 720.243C541.209 720.243 540.581 703.765 527.788 704.506ZM427.523 317.766L378.434 303.515V261.519L431.788 318.156C429.165 317.893 427.523 317.766 427.523 317.766Z" fill="url(#paint1_linear)"/>
</g>
<path d="M296.209 171.016C335.974 171.016 368.209 138.781 368.209 99.0161C368.209 59.2516 335.974 27.0161 296.209 27.0161C256.445 27.0161 224.209 59.2516 224.209 99.0161C224.209 138.781 256.445 171.016 296.209 171.016Z" fill="black"/>
<path d="M378.209 264.016L433.156 322.345C434.313 323.573 435.743 324.511 437.331 325.083C438.918 325.655 440.618 325.845 442.293 325.637C443.967 325.429 445.569 324.829 446.969 323.886C448.368 322.943 449.525 321.684 450.347 320.21L511.209 211.016L494.209 205.016L444.209 277.016C444.209 277.016 350.342 179.179 337.209 184.016C324.076 188.853 378.209 264.016 378.209 264.016Z" fill="#949393"/>
<path d="M273.209 466.016L192.209 676.016" stroke="#BDBDBD" stroke-width="5" stroke-miterlimit="10"/>
<path d="M313.209 466.016L394.209 676.016" stroke="#BDBDBD" stroke-width="5" stroke-miterlimit="10"/>
<path d="M293.209 493.016C345.124 493.016 387.209 481.599 387.209 467.516C387.209 453.433 345.124 442.016 293.209 442.016C241.294 442.016 199.209 453.433 199.209 467.516C199.209 481.599 241.294 493.016 293.209 493.016Z" fill="#B84733"/>
<path d="M293.209 491.016C345.124 491.016 387.209 479.599 387.209 465.516C387.209 451.433 345.124 440.016 293.209 440.016C241.294 440.016 199.209 451.433 199.209 465.516C199.209 479.599 241.294 491.016 293.209 491.016Z" fill="#F55F44"/>
<path d="M253.655 512.154L342.345 539.484" stroke="#BDBDBD" stroke-width="5" stroke-miterlimit="10"/>
<path d="M332.763 512.154L244.073 539.484" stroke="#BDBDBD" stroke-width="5" stroke-miterlimit="10"/>
<path d="M294.304 182.016H322.209C337.061 182.016 351.305 187.916 361.807 198.418C372.309 208.92 378.209 223.164 378.209 238.016V386.016H218.209V258.111C218.209 237.929 226.226 218.574 240.497 204.304C254.767 190.033 274.122 182.016 294.304 182.016Z" fill="#949393"/>
<path d="M218.209 386.016H378.209V473.016H289.209C270.379 473.016 252.32 465.536 239.005 452.221C225.689 438.906 218.209 420.846 218.209 402.016V386.016Z" fill="#39447A"/>
<path opacity="0.05" d="M220.37 242.055L318.209 335.016H426.209V321.016L333.209 294.016L253.655 195.776C253.655 195.776 217.531 218.095 220.37 242.055Z" fill="black"/>
<path d="M220.37 240.055L318.209 333.016H426.209V319.016L333.209 292.016L253.655 193.776C253.655 193.776 217.531 216.095 220.37 240.055Z" fill="#949393"/>
<path d="M426.209 319.016C426.209 319.016 478.209 323.016 464.209 333.016H426.209V319.016Z" fill="#FFC2A7"/>
<path d="M494.209 205.016C494.209 205.016 507.209 166.016 516.209 177.016C525.209 188.016 511.209 211.016 511.209 211.016L494.209 205.016Z" fill="#FFC2A7"/>
<path opacity="0.05" d="M218.209 386.016V390.683L378.209 391.016V386.016H218.209Z" fill="black"/>
<path d="M342.671 478.56L450.299 488.369L456.138 708.141L494.669 695.597C494.669 695.597 552.295 446.599 497.345 425.61C442.395 404.622 382.997 376.985 347.533 399.508C312.069 422.032 342.671 478.56 342.671 478.56Z" fill="#39447A"/>
<path opacity="0.1" d="M349.209 411.016C349.209 411.016 408.209 441.016 416.209 475.016L349.209 411.016Z" fill="black"/>
<path d="M286.21 472.016L370.209 540.016L276.209 691.016L315.209 702.016C315.209 702.016 478.209 562.016 444.209 514.016C410.209 466.016 376.209 410.016 334.209 409.016C292.209 408.016 286.21 472.016 286.21 472.016Z" fill="#39447A"/>
<path opacity="0.05" d="M418.209 251.016L439.209 287.016L444.209 277.016L418.209 251.016Z" fill="black"/>
<path d="M276.209 691.016C276.209 691.016 245.209 715.016 269.209 723.016C293.209 731.016 342.209 737.016 342.209 737.016C342.209 737.016 350.209 723.016 339.209 717.016C328.209 711.016 313.209 714.016 313.209 714.016L315.209 702.016L276.209 691.016Z" fill="#333333"/>
<path d="M457.032 707.431C457.032 707.431 443.415 745.195 468.014 739.291C492.614 733.388 537.374 712.566 537.374 712.566C537.374 712.566 536.759 696.453 524.25 697.179C511.742 697.904 500.598 708.383 500.598 708.383L495.209 695.016L457.032 707.431Z" fill="#333333"/>
<path d="M298.209 147.016H298.209C287.163 147.016 278.209 155.97 278.209 167.016V187.016C278.209 198.062 287.163 207.016 298.209 207.016H298.209C309.255 207.016 318.209 198.062 318.209 187.016V167.016C318.209 155.97 309.255 147.016 298.209 147.016Z" fill="#FFC2A7"/>
<path opacity="0.05" d="M298.209 149.016C292.905 149.016 287.818 151.123 284.067 154.874C280.316 158.625 278.209 163.712 278.209 169.016V175.811C291.2 180.084 305.218 180.084 318.209 175.811V169.016C318.209 163.712 316.102 158.625 312.351 154.874C308.6 151.123 303.513 149.016 298.209 149.016Z" fill="black"/>
<path d="M298.209 177.016C333.555 177.016 362.209 148.362 362.209 113.016C362.209 77.6699 333.555 49.0161 298.209 49.0161C262.863 49.0161 234.209 77.6699 234.209 113.016C234.209 148.362 262.863 177.016 298.209 177.016Z" fill="#FFC2A7"/>
<path opacity="0.05" d="M234.209 110.112C234.209 110.112 250.209 114.235 259.209 96.0504C268.209 77.8655 275.209 67.9465 312.209 78.6921C349.209 89.4377 356.652 90.7487 358.431 80.5875C359.646 73.644 346.489 56.7784 338.035 46.7931C333.911 41.9219 327.18 39.0161 319.987 39.0161H278.209L253.209 50.5883L234.209 67.12L230.209 89.4377L234.209 110.112Z" fill="black"/>
<path d="M234.209 108.112C234.209 108.112 250.209 112.235 259.209 94.0504C268.209 75.8655 275.209 65.9465 312.209 76.6921C349.209 87.4377 356.652 88.7487 358.431 78.5875C359.646 71.644 346.489 54.7784 338.035 44.7931C333.911 39.9219 327.18 37.0161 319.987 37.0161H278.209L253.209 48.5883L234.209 65.12L230.209 87.4377L234.209 108.112Z" fill="black"/>
<path d="M240.709 121.016C244.299 121.016 247.209 115.196 247.209 108.016C247.209 100.836 244.299 95.0161 240.709 95.0161C237.119 95.0161 234.209 100.836 234.209 108.016C234.209 115.196 237.119 121.016 240.709 121.016Z" fill="#FFC2A7"/>
<path d="M236.063 74.5653C234.58 66.194 233.123 57.4035 235.823 49.3421C237.146 45.5039 239.349 42.0286 242.255 39.1941C245.161 36.3596 248.69 34.2446 252.56 33.0183C257.603 31.4681 263.038 31.5011 268.049 29.851C275.101 27.5286 280.629 22.1386 286.755 17.943C292.169 14.2376 298.14 11.4201 304.442 9.5967C310.105 7.96019 316.772 7.32969 321.387 10.9972C325.272 14.0843 326.621 19.3759 329.831 23.1594C333.567 27.5626 339.37 29.4714 344.437 32.242C350.75 35.7748 356.109 40.7923 360.048 46.8606C363.988 52.929 366.39 59.8657 367.047 67.0707C367.221 69.2175 367.042 71.7679 365.231 72.9337C364.106 73.5059 362.839 73.7373 361.584 73.5994C336.005 73.2338 310.396 72.8667 284.923 70.5186C277.004 69.7886 269.069 68.8664 261.122 69.1675C248.824 69.647 236.814 73.0356 226.078 79.0555" fill="black"/>
<path d="M125.301 645.267H36.7841C18.6779 645.267 4 659.945 4 678.051V678.051C4 696.157 18.6779 710.835 36.7841 710.835H125.301C143.408 710.835 158.085 696.157 158.085 678.051C158.085 659.945 143.408 645.267 125.301 645.267Z" fill="#736E6E"/>
<path d="M579.876 411.183C580.265 411.169 580.633 411.005 580.903 410.725C581.174 410.446 581.325 410.072 581.325 409.683C581.325 409.294 581.174 408.92 580.903 408.64C580.633 408.36 580.265 408.196 579.876 408.183C579.487 408.196 579.119 408.36 578.848 408.64C578.578 408.92 578.427 409.294 578.427 409.683C578.427 410.072 578.578 410.446 578.848 410.725C579.119 411.005 579.487 411.169 579.876 411.183Z" fill="url(#paint2_linear)"/>
<path d="M799.971 344.016L903.971 714.108" stroke="#E0E0E0" stroke-width="8" stroke-miterlimit="10"/>
<path d="M904.393 333.178H342.787V355.063H904.393V333.178Z" fill="#D6D6D6"/>
<path d="M566.709 328.016H487.709C484.119 328.016 481.209 330.926 481.209 334.516V334.516C481.209 338.106 484.119 341.016 487.709 341.016H566.709C570.299 341.016 573.209 338.106 573.209 334.516C573.209 330.926 570.299 328.016 566.709 328.016Z" fill="#535461"/>
<g opacity="0.7">
<path opacity="0.7" d="M737.649 183.077H565.429C549.843 183.077 537.209 195.711 537.209 211.297V312.959C537.209 328.544 549.843 341.178 565.429 341.178H737.649C753.234 341.178 765.869 328.544 765.869 312.959V211.297C765.869 195.711 753.234 183.077 737.649 183.077Z" fill="url(#paint3_linear)"/>
</g>
<path d="M731.06 185.994H568.121C553.3 185.994 541.286 198.008 541.286 212.829V314.343C541.286 329.164 553.3 341.178 568.121 341.178H731.06C745.88 341.178 757.895 329.164 757.895 314.343V212.829C757.895 198.008 745.88 185.994 731.06 185.994Z" fill="#3E3F49"/>
<path d="M734.06 185.994H571.121C556.3 185.994 544.286 198.008 544.286 212.829V314.343C544.286 329.164 556.3 341.178 571.121 341.178H734.06C748.88 341.178 760.895 329.164 760.895 314.343V212.829C760.895 198.008 748.88 185.994 734.06 185.994Z" fill="#535461"/>
<path d="M662.709 269.516C666.575 269.516 669.709 266.382 669.709 262.516C669.709 258.65 666.575 255.516 662.709 255.516C658.843 255.516 655.709 258.65 655.709 262.516C655.709 266.382 658.843 269.516 662.709 269.516Z" fill="#E0E0E0"/>
</g>
<defs>
<filter id="filter0_di" x="0" y="0" width="911.822" height="758.215" filterUnits="userSpaceOnUse" color-interpolation-filters="sRGB">
<feFlood flood-opacity="0" result="BackgroundImageFix"/>
<feColorMatrix in="SourceAlpha" type="matrix" values="0 0 0 0 0 0 0 0 0 0 0 0 0 0 0 0 0 0 127 0"/>
<feOffset dy="4"/>
<feGaussianBlur stdDeviation="2"/>
<feColorMatrix type="matrix" values="0 0 0 0 0 0 0 0 0 0 0 0 0 0 0 0 0 0 0.25 0"/>
<feBlend mode="normal" in2="BackgroundImageFix" result="effect1_dropShadow"/>
<feBlend mode="normal" in="SourceGraphic" in2="effect1_dropShadow" result="shape"/>
<feColorMatrix in="SourceAlpha" type="matrix" values="0 0 0 0 0 0 0 0 0 0 0 0 0 0 0 0 0 0 127 0" result="hardAlpha"/>
<feOffset dx="-4" dy="10"/>
<feGaussianBlur stdDeviation="6.5"/>
<feComposite in2="hardAlpha" operator="arithmetic" k2="-1" k3="1"/>
<feColorMatrix type="matrix" values="0 0 0 0 0.00416667 0 0 0 0 0.00416667 0 0 0 0 0.00416667 0 0 0 0.19 0"/>
<feBlend mode="normal" in2="shape" result="effect2_innerShadow"/>
</filter>
<linearGradient id="paint0_linear" x1="817.828" y1="334.922" x2="817.828" y2="273.91" gradientUnits="userSpaceOnUse">
<stop stop-color="#808080" stop-opacity="0.25"/>
<stop offset="0.53514" stop-color="#808080" stop-opacity="0.12"/>
<stop offset="1" stop-color="#808080" stop-opacity="0.1"/>
</linearGradient>
<linearGradient id="paint1_linear" x1="177987" y1="616610" x2="177987" y2="56783.9" gradientUnits="userSpaceOnUse">
<stop stop-color="#808080" stop-opacity="0.25"/>
<stop offset="0.53514" stop-color="#808080" stop-opacity="0.12"/>
<stop offset="1" stop-color="#808080" stop-opacity="0.1"/>
</linearGradient>
<linearGradient id="paint2_linear" x1="2681.36" y1="1869.41" x2="2681.36" y2="1860.41" gradientUnits="userSpaceOnUse">
<stop stop-color="#808080" stop-opacity="0.25"/>
<stop offset="0.53514" stop-color="#808080" stop-opacity="0.12"/>
<stop offset="1" stop-color="#808080" stop-opacity="0.1"/>
</linearGradient>
<linearGradient id="paint3_linear" x1="148603" y1="54123.8" x2="148603" y2="29127.8" gradientUnits="userSpaceOnUse">
<stop stop-color="#808080" stop-opacity="0.25"/>
<stop offset="0.53514" stop-color="#808080" stop-opacity="0.12"/>
<stop offset="1" stop-color="#808080" stop-opacity="0.1"/>
</linearGradient>
<clipPath id="clip0">
<rect width="903.822" height="748.215" fill="white" transform="translate(4)"/>
</clipPath>
</defs>
</svg>
